<svg width="25" height="25" viewBox="0 0 25 25" fill="none" xmlns="http://www.w3.org/2000/svg">
<path d="M24.8562 7.35703L19.626 0.296402C19.4878 0.110054 19.2696 0 19.0374 0C18.8053 0 18.5869 0.110054 18.449 0.296402L13.2189 7.35703C13.0543 7.57923 13.0289 7.87544 13.1535 8.12244C13.2778 8.36945 13.5309 8.52547 13.8075 8.52547H15.69V12.0655C15.3214 11.8755 14.9038 11.7676 14.4611 11.7676H13.1536C11.6684 11.7676 10.4601 12.9759 10.4601 14.4611V15.988C10.0914 15.798 9.67369 15.69 9.23119 15.69H7.9237C6.43845 15.69 5.23014 16.8985 5.23014 18.3838V19.9104C4.86126 19.7206 4.44374 19.6125 4.00124 19.6125H2.69356C1.20831 19.6125 0 20.821 0 22.3063V24.2676C0 24.6721 0.327873 25 0.732422 25H21.6524C22.057 25 22.3848 24.6721 22.3848 24.2676V8.52547H24.2676C24.5441 8.52547 24.7972 8.36945 24.9216 8.12244C25.0462 7.87544 25.0208 7.57923 24.8562 7.35703ZM1.46484 22.3063C1.46484 21.6288 2.01607 21.0773 2.69356 21.0773H4.00105C4.67873 21.0773 5.22995 21.6288 5.22995 22.3063V23.5352H1.46484V22.3063ZM6.69479 22.3063V18.3838C6.69479 17.7061 7.24602 17.1549 7.9237 17.1549H9.23119C9.90868 17.1549 10.4599 17.7061 10.4599 18.3838V23.5352H6.69479V22.3063ZM11.9249 18.3838V14.4611C11.9249 13.7836 12.4762 13.2324 13.1536 13.2324H14.4611C15.1386 13.2324 15.69 13.7836 15.69 14.4611V23.5352H11.9249V18.3838ZM21.6524 7.06062C21.2479 7.06062 20.92 7.3885 20.92 7.79305V23.5352H17.1549V7.79305C17.1549 7.3885 16.8268 7.06062 16.4225 7.06062H15.2615L19.0374 1.96285L22.8136 7.06062H21.6524Z" fill="white"/>
</svg>
