<svg width="25" height="25" viewBox="0 0 25 25" fill="none" xmlns="http://www.w3.org/2000/svg">
<path d="M16.4062 0.78125C12.2406 0.78125 7.8125 2.15 7.8125 4.6875V7.8125C7.8125 8.24375 8.1625 8.59375 8.59375 8.59375C9.025 8.59375 9.375 8.24375 9.375 7.8125V6.99844C11.0328 8.04375 13.7703 8.59375 16.4062 8.59375C19.0422 8.59375 21.7797 8.04375 23.4375 6.99844V7.8125C23.4375 8.57656 21.5156 9.79531 17.9031 10.0969C17.475 10.1312 17.1547 10.5109 17.1906 10.9406C17.2234 11.3484 17.5656 11.6562 17.9672 11.6562C17.9906 11.6562 18.0109 11.6547 18.0344 11.6531C20.0687 11.4828 22.0953 10.9562 23.4375 10.1016V10.9375C23.4375 11.6047 22.0219 12.5641 19.3953 13.0281C18.9719 13.1031 18.6875 13.5094 18.7625 13.9328C18.8297 14.3109 19.1594 14.5781 19.5297 14.5781C19.575 14.5781 19.6219 14.575 19.6672 14.5656C21.2562 14.2859 22.5281 13.8281 23.4375 13.2469V14.0625C23.4375 14.7297 22.0219 15.6891 19.3953 16.1531C18.9719 16.2281 18.6875 16.6344 18.7625 17.0578C18.8297 17.4359 19.1594 17.7031 19.5297 17.7031C19.575 17.7031 19.6219 17.7 19.6672 17.6906C21.2562 17.4109 22.5281 16.9516 23.4375 16.3719V17.1875C23.4375 17.8547 22.0219 18.8141 19.3953 19.2781C18.9719 19.3531 18.6875 19.7594 18.7625 20.1828C18.8297 20.5609 19.1594 20.8281 19.5297 20.8281C19.575 20.8281 19.6219 20.825 19.6672 20.8156C21.2562 20.5359 22.5281 20.0766 23.4375 19.4969V20.3125C23.4375 21.0766 21.5156 22.2953 17.9031 22.5969C17.475 22.6312 17.1547 23.0109 17.1906 23.4406C17.2234 23.8484 17.5656 24.1562 17.9672 24.1562C17.9906 24.1562 18.0109 24.1547 18.0344 24.1531C21.5016 23.8625 25 22.5641 25 20.3125V4.6875C25 2.15 20.5719 0.78125 16.4062 0.78125ZM16.4062 7.03125C12.1141 7.03125 9.375 5.64219 9.375 4.6875C9.375 3.73281 12.1141 2.34375 16.4062 2.34375C20.6984 2.34375 23.4375 3.73281 23.4375 4.6875C23.4375 5.64219 20.6984 7.03125 16.4062 7.03125Z" fill="white"/>
<path d="M8.59375 10.1562C4.42813 10.1562 0 11.525 0 14.0625V20.3125C0 22.85 4.42813 24.2188 8.59375 24.2188C12.7594 24.2188 17.1875 22.85 17.1875 20.3125V14.0625C17.1875 11.525 12.7594 10.1562 8.59375 10.1562ZM15.625 20.3125C15.625 21.2672 12.8859 22.6562 8.59375 22.6562C4.30156 22.6562 1.5625 21.2672 1.5625 20.3125V19.4984C3.22031 20.5437 5.95781 21.0938 8.59375 21.0938C11.2297 21.0938 13.9672 20.5437 15.625 19.4984V20.3125ZM15.625 17.1875C15.625 18.1422 12.8859 19.5312 8.59375 19.5312C4.30156 19.5312 1.5625 18.1422 1.5625 17.1875V16.3734C3.22031 17.4188 5.95781 17.9688 8.59375 17.9688C11.2297 17.9688 13.9672 17.4188 15.625 16.3734V17.1875ZM8.59375 16.4062C4.30156 16.4062 1.5625 15.0172 1.5625 14.0625C1.5625 13.1078 4.30156 11.7188 8.59375 11.7188C12.8859 11.7188 15.625 13.1078 15.625 14.0625C15.625 15.0172 12.8859 16.4062 8.59375 16.4062Z" fill="white"/>
</svg>
