<svg width="24" height="28" viewBox="0 0 24 28" fill="none" xmlns="http://www.w3.org/2000/svg">
<path d="M23.7318 7.20949C23.7174 6.45353 23.7037 5.73938 23.7037 5.0485C23.7037 4.50724 23.265 4.06843 22.7236 4.06843C18.5322 4.06843 15.341 2.86385 12.6809 0.277507C12.3004 -0.0925678 11.6948 -0.0924371 11.3144 0.277507C8.65465 2.86385 5.46393 4.06843 1.27275 4.06843C0.73149 4.06843 0.29268 4.50724 0.29268 5.0485C0.29268 5.73951 0.279089 6.45392 0.264584 7.21001C0.130249 14.2451 -0.0537424 23.88 11.6767 27.946C11.7807 27.982 11.8892 28.0001 11.9976 28.0001C12.1061 28.0001 12.2147 27.982 12.3186 27.946C24.0499 23.8799 23.8662 14.2447 23.7318 7.20949ZM11.9977 25.98C1.93737 22.3253 2.08948 14.3195 2.22447 7.24739C2.23257 6.82295 2.24041 6.41158 2.2459 6.00831C6.17141 5.84262 9.31052 4.65307 11.9977 2.31214C14.6852 4.65307 17.8249 5.84275 21.7506 6.00831C21.7561 6.41145 21.764 6.82256 21.7721 7.24673C21.9069 14.3191 22.0589 22.3252 11.9977 25.98Z" fill="white"/>
<path d="M15.3711 10.5956L10.6408 15.3257L8.62223 13.3071C8.23948 12.9245 7.6189 12.9245 7.23628 13.3071C6.85353 13.69 6.85353 14.3105 7.23628 14.6932L9.94781 17.4047C10.1391 17.5961 10.39 17.6917 10.6408 17.6917C10.8916 17.6917 11.1425 17.5961 11.3338 17.4047L16.757 11.9817C17.1398 11.5989 17.1398 10.9783 16.7571 10.5957C16.3745 10.213 15.7539 10.2128 15.3711 10.5956Z" fill="white"/>
</svg>
